<?xml version="1.0" standalone="no"?><!DOCTYPE svg PUBLIC "-//W3C//DTD SVG 1.1//EN"
  "http://www.w3.org/Graphics/SVG/1.1/DTD/svg11.dtd">
<svg t="1609829027188" class="icon" viewBox="0 0 1024 1024" version="1.1" xmlns="http://www.w3.org/2000/svg" p-id="4718"
  data-spm-anchor-id="a313x.7781069.0.i14" width="40" height="40" xmlns:xlink="http://www.w3.org/1999/xlink">
  <defs>
    <style type="text/css"></style>
  </defs>
  <path
    d="M294.176789 628.521656c0-21.503724 15.944938-36.278391 34.010991-21.796291l166.763571 133.849708c18.139195 14.4821 18.139195 38.253222 0.073142 52.808463l-168.006983 135.166263c-18.066053 14.4821-32.767579 3.80338-32.767579-21.72315v-68.387692h-3.07196c-105.32436 0-197.044324-121.781291-198.507162-230.031328 0-8.630746 7.021624-10.971288 13.677538 0C140.43248 669.188562 196.020337 700.712728 269.01597 700.712728h25.160819z m565.240733-18.870614L950.844918 768.003291l-91.427396 158.35225h-182.854792L585.135334 768.003291l91.427396-158.352249h182.854792z"
    fill="#17abe3" p-id="4719" data-spm-anchor-id="a313x.7781069.0.i15" class=""></path>
  <path
    d="M144.820995 374.353495v-269.162253h-63.633467v271.356511c0 22.673994-13.165545 32.913863-29.256767 32.913862a56.977553 56.977553 0 0 1-32.182443-10.971287l-19.748318 49.005084c16.091222 10.971288 36.570958 17.55406 57.782114 17.55406 44.616569 0 87.038881-29.256767 87.038881-90.695977zM112.638552 75.34934c23.405413 0 38.765216-16.091222 38.765216-37.302378 0-22.673994-15.359803-38.033797-38.765216-38.033796a36.351533 36.351533 0 0 0-37.302378 38.033796c0 21.211156 16.091222 37.302378 37.302378 37.302378z m192.72895 245.610556a147.161536 147.161536 0 0 1-88.501719-32.913862l-21.942575 44.616569c27.062509 24.136833 68.021983 36.570958 107.518618 36.570958 56.319276 0 103.861522-25.599671 103.861522-78.99327 0-93.621653-138.969642-70.947659-138.969642-114.832809 0-16.091222 14.628383-22.673994 35.10812-22.673994 22.673994 0 51.930761 8.77703 76.799012 23.478555l23.405414-46.079408a177.149722 177.149722 0 0 0-95.815911-27.793928c-52.66218 0-98.741588 24.868252-98.741588 78.99327-0.731419 92.817092 136.043965 66.559144 136.043965 114.759668 0 16.822641-16.822641 24.868252-38.765216 24.868251z m402.207401-85.210333a133.483998 133.483998 0 1 0-266.967997 0 133.483998 133.483998 0 0 0 266.967997 0zM574.164046 314.815975a79.066412 79.066412 0 1 1 0-158.205966 79.066412 79.066412 0 1 1 0 158.205966z m314.217675-212.55041a135.751397 135.751397 0 0 0-135.678256 135.678256v131.28974h63.267758V237.943821a72.410498 72.410498 0 0 1 144.674712 0v131.28974H1023.986834V237.943821c0-74.897323-60.707791-135.605114-135.605113-135.678256z"
    fill="#3f81c1" p-id="4720" data-spm-anchor-id="a313x.7781069.0.i11" class=""></path>
</svg>